<svg xmlns="http://www.w3.org/2000/svg" viewBox="0 0 960 760" font-family="Inter, system-ui, sans-serif" font-size="13">
  <defs>
    <linearGradient id="bg" x1="0" y1="0" x2="1" y2="1">
      <stop offset="0%" stop-color="#f8fafc"/>
      <stop offset="100%" stop-color="#eef2ff"/>
    </linearGradient>
    <linearGradient id="title" x1="0" y1="0" x2="1" y2="0">
      <stop offset="0%" stop-color="#0f172a"/>
      <stop offset="100%" stop-color="#1e293b"/>
    </linearGradient>
    <filter id="shadow" x="-8%" y="-8%" width="116%" height="120%">
      <feDropShadow dx="0" dy="3" stdDeviation="4" flood-color="#0f172a" flood-opacity="0.12"/>
    </filter>
    <marker id="arrow" markerWidth="8" markerHeight="8" refX="7" refY="4" orient="auto">
      <path d="M0,0 L8,4 L0,8 z" fill="#475569"/>
    </marker>
    <marker id="arrowGreen" markerWidth="8" markerHeight="8" refX="7" refY="4" orient="auto">
      <path d="M0,0 L8,4 L0,8 z" fill="#059669"/>
    </marker>
  </defs>

  <rect width="960" height="760" rx="18" fill="url(#bg)"/>

  <rect x="0" y="0" width="960" height="56" rx="18" fill="url(#title)"/>
  <rect x="0" y="28" width="960" height="28" fill="url(#title)"/>
  <text x="480" y="35" text-anchor="middle" fill="#ffffff" font-size="19" font-weight="700">Codex-Managed Multi-User NemoClaw</text>

  <text x="42" y="88" fill="#475569" font-size="11" font-weight="700" letter-spacing="1.2">USER CHANNELS</text>
  <rect x="58" y="104" width="180" height="58" rx="10" fill="#4A154B" filter="url(#shadow)"/>
  <text x="148" y="128" text-anchor="middle" fill="#ffffff" font-size="14" font-weight="700">Slack App</text>
  <text x="148" y="146" text-anchor="middle" fill="#f5d0fe" font-size="11">DM-only bridge entry point</text>

  <rect x="258" y="104" width="180" height="58" rx="10" fill="#0f766e" filter="url(#shadow)"/>
  <text x="348" y="128" text-anchor="middle" fill="#ffffff" font-size="14" font-weight="700">WhatsApp</text>
  <text x="348" y="146" text-anchor="middle" fill="#ccfbf1" font-size="11">host-side session and notifications</text>

  <line x1="148" y1="162" x2="148" y2="210" stroke="#475569" stroke-width="2" marker-end="url(#arrow)"/>
  <line x1="348" y1="162" x2="348" y2="210" stroke="#475569" stroke-width="2" marker-end="url(#arrow)"/>

  <text x="42" y="228" fill="#475569" font-size="11" font-weight="700" letter-spacing="1.2">HOST CONTROL PLANE</text>
  <rect x="36" y="242" width="888" height="172" rx="14" fill="#ffffff" stroke="#cbd5e1" stroke-width="1.5"/>

  <rect x="58" y="264" width="260" height="64" rx="10" fill="#0ea5e9" filter="url(#shadow)"/>
  <text x="188" y="289" text-anchor="middle" fill="#ffffff" font-size="14" font-weight="700">slack-bridge-multi.js</text>
  <text x="188" y="307" text-anchor="middle" fill="#dbeafe" font-size="11">queueing · retry · pending-run recovery · DM routing</text>

  <rect x="340" y="264" width="262" height="64" rx="10" fill="#f59e0b" filter="url(#shadow)"/>
  <text x="471" y="289" text-anchor="middle" fill="#ffffff" font-size="14" font-weight="700">Direct Host Actions</text>
  <text x="471" y="307" text-anchor="middle" fill="#fef3c7" font-size="11">admin commands · !setup · Yahoo and email-query · WhatsApp</text>

  <rect x="624" y="264" width="278" height="64" rx="10" fill="#6366f1" filter="url(#shadow)"/>
  <text x="763" y="289" text-anchor="middle" fill="#ffffff" font-size="14" font-weight="700">State and Safety</text>
  <text x="763" y="307" text-anchor="middle" fill="#e0e7ff" font-size="11">users.json · sandboxes.json · admin audit · delete TTL</text>

  <rect x="58" y="344" width="260" height="50" rx="8" fill="#e0f2fe" stroke="#38bdf8"/>
  <text x="188" y="365" text-anchor="middle" fill="#0c4a6e" font-size="11" font-weight="600">runtime.json + runtime-config.js</text>
  <text x="188" y="381" text-anchor="middle" fill="#0c4a6e" font-size="10">timeouts · policy presets · shared files</text>

  <rect x="340" y="344" width="262" height="50" rx="8" fill="#ecfccb" stroke="#84cc16"/>
  <text x="471" y="365" text-anchor="middle" fill="#365314" font-size="11" font-weight="600">fallback routing + cooldown</text>
  <text x="471" y="381" text-anchor="middle" fill="#4d7c0f" font-size="10">Anthropic to NVIDIA to Ollama, then restore</text>

  <rect x="624" y="344" width="278" height="50" rx="8" fill="#fee2e2" stroke="#ef4444"/>
  <text x="763" y="365" text-anchor="middle" fill="#7f1d1d" font-size="11" font-weight="600">recoverable add and delete flows</text>
  <text x="763" y="381" text-anchor="middle" fill="#7f1d1d" font-size="10">audit trail and staged confirmations</text>

  <line x1="188" y1="328" x2="188" y2="344" stroke="#475569" stroke-width="1.5"/>
  <line x1="471" y1="328" x2="471" y2="344" stroke="#475569" stroke-width="1.5"/>
  <line x1="763" y1="328" x2="763" y2="344" stroke="#475569" stroke-width="1.5"/>

  <text x="42" y="446" fill="#475569" font-size="11" font-weight="700" letter-spacing="1.2">OPEN SHELL SANDBOX FLEET</text>
  <rect x="36" y="460" width="888" height="214" rx="14" fill="#f0fdf4" stroke="#22c55e" stroke-width="1.6"/>

  <rect x="60" y="486" width="210" height="82" rx="10" fill="#10b981" filter="url(#shadow)"/>
  <text x="165" y="512" text-anchor="middle" fill="#ffffff" font-size="14" font-weight="700">user1-claw</text>
  <text x="165" y="532" text-anchor="middle" fill="#d1fae5" font-size="11">Claude Code foreground path</text>
  <text x="165" y="549" text-anchor="middle" fill="#d1fae5" font-size="11">repo work and direct coding tasks</text>

  <rect x="290" y="486" width="180" height="82" rx="10" fill="#10b981" filter="url(#shadow)"/>
  <text x="380" y="512" text-anchor="middle" fill="#ffffff" font-size="14" font-weight="700">user2-claw</text>
  <text x="380" y="532" text-anchor="middle" fill="#d1fae5" font-size="11">Freshrelease MCP</text>
  <text x="380" y="549" text-anchor="middle" fill="#d1fae5" font-size="11">mcporter inside sandbox</text>

  <rect x="490" y="486" width="180" height="82" rx="10" fill="#10b981" filter="url(#shadow)"/>
  <text x="580" y="512" text-anchor="middle" fill="#ffffff" font-size="14" font-weight="700">user3-claw</text>
  <text x="580" y="532" text-anchor="middle" fill="#d1fae5" font-size="11">Google via gog</text>
  <text x="580" y="549" text-anchor="middle" fill="#d1fae5" font-size="11">credential-driven policy enablement</text>

  <rect x="690" y="486" width="210" height="82" rx="10" fill="#10b981" filter="url(#shadow)"/>
  <text x="795" y="512" text-anchor="middle" fill="#ffffff" font-size="14" font-weight="700">other claws</text>
  <text x="795" y="532" text-anchor="middle" fill="#d1fae5" font-size="11">per-user creds and workspace</text>
  <text x="795" y="549" text-anchor="middle" fill="#d1fae5" font-size="11">shared defaults and policy isolation</text>

  <rect x="88" y="594" width="210" height="52" rx="8" fill="#dcfce7" stroke="#16a34a"/>
  <text x="193" y="615" text-anchor="middle" fill="#166534" font-size="11" font-weight="600">persist/workspace defaults</text>
  <text x="193" y="631" text-anchor="middle" fill="#15803d" font-size="10">AGENTS, TOOLS, SOUL, USER, HEARTBEAT</text>

  <rect x="330" y="594" width="274" height="52" rx="8" fill="#dcfce7" stroke="#16a34a"/>
  <text x="467" y="615" text-anchor="middle" fill="#166534" font-size="11" font-weight="600">health-first lifecycle</text>
  <text x="467" y="631" text-anchor="middle" fill="#15803d" font-size="10">Ready state wins over noisy wrapper output</text>

  <rect x="636" y="594" width="240" height="52" rx="8" fill="#dcfce7" stroke="#16a34a"/>
  <text x="756" y="615" text-anchor="middle" fill="#166534" font-size="11" font-weight="600">selection sync and policy isolation</text>
  <text x="756" y="631" text-anchor="middle" fill="#15803d" font-size="10">provider metadata and per-user credentials</text>

  <line x1="188" y1="394" x2="188" y2="486" stroke="#475569" stroke-width="2" marker-end="url(#arrow)"/>
  <line x1="471" y1="394" x2="471" y2="486" stroke="#475569" stroke-width="2" marker-end="url(#arrow)"/>
  <line x1="763" y1="394" x2="763" y2="486" stroke="#475569" stroke-width="2" marker-end="url(#arrow)"/>

  <line x1="471" y1="394" x2="580" y2="476" stroke="#059669" stroke-width="1.5" stroke-dasharray="4,3" marker-end="url(#arrowGreen)"/>
  <text x="525" y="430" fill="#059669" font-size="10">credential-aware policy injection</text>

  <text x="42" y="706" fill="#475569" font-size="11" font-weight="700" letter-spacing="1.2">OPERATING MODEL</text>
  <rect x="36" y="720" width="888" height="24" rx="12" fill="#ffffff" stroke="#cbd5e1"/>
  <text x="58" y="736" fill="#0f172a" font-size="11">
    Slack bridge handles setup, admin, recovery, and fallback routing. Sandboxes handle user tools, workspace state, and foreground coding work.
  </text>
</svg>
