<svg xmlns="http://www.w3.org/2000/svg" viewBox="0 0 920 780" font-family="Inter, -apple-system, sans-serif" font-size="13">
  <defs>
    <marker id="arrow" markerWidth="8" markerHeight="6" refX="8" refY="3" orient="auto">
      <path d="M0,0 L8,3 L0,6" fill="#64748b"/>
    </marker>
    <marker id="arrow-green" markerWidth="8" markerHeight="6" refX="8" refY="3" orient="auto">
      <path d="M0,0 L8,3 L0,6" fill="#059669"/>
    </marker>
    <linearGradient id="headerGrad" x1="0" y1="0" x2="1" y2="0">
      <stop offset="0%" stop-color="#0f172a"/>
      <stop offset="100%" stop-color="#1e293b"/>
    </linearGradient>
    <filter id="shadow" x="-4%" y="-4%" width="108%" height="112%">
      <feDropShadow dx="0" dy="2" stdDeviation="3" flood-opacity="0.08"/>
    </filter>
  </defs>

  <!-- Background -->
  <rect width="920" height="780" rx="12" fill="#f8fafc"/>

  <!-- Title -->
  <rect x="0" y="0" width="920" height="48" rx="12" fill="url(#headerGrad)"/>
  <rect x="0" y="24" width="920" height="24" fill="url(#headerGrad)"/>
  <text x="460" y="31" text-anchor="middle" fill="white" font-size="16" font-weight="600">Multi-User NemoClaw — Service Architecture</text>

  <!-- ===== SLACK LAYER ===== -->
  <text x="40" y="82" fill="#475569" font-size="11" font-weight="600" letter-spacing="1">SLACK</text>

  <!-- Slack App -->
  <rect x="350" y="66" width="220" height="44" rx="8" fill="#4A154B" filter="url(#shadow)"/>
  <text x="460" y="84" text-anchor="middle" fill="white" font-weight="600" font-size="13">Slack App</text>
  <text x="460" y="100" text-anchor="middle" fill="#e2b8e4" font-size="10">Socket Mode  ·  1 bot token</text>

  <!-- User icons -->
  <g fill="#7c3aed" font-size="10">
    <rect x="170" y="72" width="80" height="32" rx="6" fill="#ede9fe"/>
    <text x="210" y="93" text-anchor="middle" fill="#6d28d9">Users (8)</text>
    <line x1="250" y1="88" x2="350" y2="88" stroke="#7c3aed" stroke-width="1.5" marker-end="url(#arrow)" stroke-dasharray="4,3"/>
  </g>

  <!-- Arrow Slack → Bridge -->
  <line x1="460" y1="110" x2="460" y2="148" stroke="#64748b" stroke-width="1.5" marker-end="url(#arrow)"/>

  <!-- ===== DGX SPARK HOST ===== -->
  <rect x="20" y="130" width="880" height="120" rx="10" fill="none" stroke="#94a3b8" stroke-width="1.5" stroke-dasharray="6,3"/>
  <text x="40" y="147" fill="#475569" font-size="11" font-weight="600" letter-spacing="1">DGX SPARK HOST</text>

  <!-- Bridge (outside cluster) -->
  <rect x="310" y="152" width="300" height="56" rx="8" fill="#0ea5e9" filter="url(#shadow)"/>
  <text x="460" y="175" text-anchor="middle" fill="white" font-weight="600">slack-bridge-multi.js</text>
  <text x="460" y="191" text-anchor="middle" fill="#bae6fd" font-size="10">Route by slackUserId · RBAC · Admin cmds · Queue</text>

  <!-- Registries -->
  <rect x="670" y="156" width="200" height="48" rx="8" fill="#fef3c7" stroke="#f59e0b" stroke-width="1" filter="url(#shadow)"/>
  <text x="770" y="176" text-anchor="middle" fill="#92400e" font-weight="600" font-size="12">users.json</text>
  <text x="770" y="191" text-anchor="middle" fill="#a16207" font-size="10">sandboxes.json</text>
  <line x1="610" y1="180" x2="670" y2="180" stroke="#f59e0b" stroke-width="1.5" marker-end="url(#arrow)"/>

  <!-- CLI -->
  <rect x="48" y="156" width="200" height="48" rx="8" fill="#dbeafe" stroke="#3b82f6" stroke-width="1" filter="url(#shadow)"/>
  <text x="148" y="176" text-anchor="middle" fill="#1e3a5f" font-weight="600" font-size="12">nemoclaw CLI</text>
  <text x="148" y="191" text-anchor="middle" fill="#3b82f6" font-size="10">user-add · purge · list · status</text>
  <line x1="248" y1="180" x2="310" y2="180" stroke="#3b82f6" stroke-width="1" stroke-dasharray="4,3"/>

  <!-- ===== K3S CLUSTER ===== -->
  <rect x="30" y="260" width="860" height="210" rx="12" fill="#f0fdf4" stroke="#16a34a" stroke-width="2"/>
  <!-- K3s label with icon -->
  <rect x="42" y="268" width="120" height="22" rx="4" fill="#16a34a"/>
  <text x="102" y="283" text-anchor="middle" fill="white" font-size="11" font-weight="600">K3s Cluster</text>
  <!-- Namespace label -->
  <text x="180" y="283" fill="#15803d" font-size="10" font-weight="500">namespace: openshell</text>

  <!-- SSH fan-out lines from bridge into cluster -->
  <line x1="370" y1="208" x2="150" y2="300" stroke="#64748b" stroke-width="1.5" marker-end="url(#arrow)"/>
  <line x1="460" y1="208" x2="460" y2="300" stroke="#64748b" stroke-width="1.5" marker-end="url(#arrow)"/>
  <line x1="550" y1="208" x2="770" y2="300" stroke="#64748b" stroke-width="1.5" marker-end="url(#arrow)"/>
  <text x="245" y="260" fill="#64748b" font-size="10" transform="rotate(-18,245,260)">SSH proxy</text>
  <text x="470" y="260" fill="#64748b" font-size="10">SSH proxy</text>
  <text x="665" y="260" fill="#64748b" font-size="10" transform="rotate(18,665,260)">SSH proxy</text>

  <!-- Pod 1 -->
  <rect x="48" y="300" width="200" height="70" rx="8" fill="#10b981" filter="url(#shadow)"/>
  <rect x="48" y="300" width="200" height="22" rx="8" fill="#059669"/>
  <rect x="48" y="314" width="200" height="8" fill="#059669"/>
  <text x="148" y="316" text-anchor="middle" fill="white" font-size="10" font-weight="600">POD</text>
  <text x="148" y="342" text-anchor="middle" fill="white" font-weight="600">veyonce-claw</text>
  <text x="148" y="358" text-anchor="middle" fill="#a7f3d0" font-size="10">Claude Sonnet 4.6 · admin</text>

  <!-- Pod 2 -->
  <rect x="360" y="300" width="200" height="70" rx="8" fill="#10b981" filter="url(#shadow)"/>
  <rect x="360" y="300" width="200" height="22" rx="8" fill="#059669"/>
  <rect x="360" y="314" width="200" height="8" fill="#059669"/>
  <text x="460" y="316" text-anchor="middle" fill="white" font-size="10" font-weight="600">POD</text>
  <text x="460" y="342" text-anchor="middle" fill="white" font-weight="600">aditya-claw</text>
  <text x="460" y="358" text-anchor="middle" fill="#a7f3d0" font-size="10">OpenShell sandbox</text>

  <!-- Pod N -->
  <rect x="672" y="300" width="200" height="70" rx="8" fill="#10b981" filter="url(#shadow)"/>
  <rect x="672" y="300" width="200" height="22" rx="8" fill="#059669"/>
  <rect x="672" y="314" width="200" height="8" fill="#059669"/>
  <text x="772" y="316" text-anchor="middle" fill="white" font-size="10" font-weight="600">POD</text>
  <text x="772" y="342" text-anchor="middle" fill="white" font-weight="600">nirmal-claw</text>
  <text x="772" y="358" text-anchor="middle" fill="#a7f3d0" font-size="10">OpenShell sandbox</text>

  <!-- Ellipsis between pods -->
  <text x="600" y="342" text-anchor="middle" fill="#16a34a" font-size="22" font-weight="600">···</text>

  <!-- Network policy badges on pods -->
  <rect x="60" y="374" width="74" height="16" rx="3" fill="#bbf7d0" stroke="#16a34a" stroke-width="0.5"/>
  <text x="97" y="385" text-anchor="middle" fill="#166534" font-size="8" font-weight="500">net policy</text>
  <rect x="372" y="374" width="74" height="16" rx="3" fill="#bbf7d0" stroke="#16a34a" stroke-width="0.5"/>
  <text x="409" y="385" text-anchor="middle" fill="#166534" font-size="8" font-weight="500">net policy</text>
  <rect x="684" y="374" width="74" height="16" rx="3" fill="#bbf7d0" stroke="#16a34a" stroke-width="0.5"/>
  <text x="721" y="385" text-anchor="middle" fill="#166534" font-size="8" font-weight="500">net policy</text>

  <!-- Controller pod -->
  <rect x="48" y="404" width="220" height="42" rx="6" fill="#dcfce7" stroke="#16a34a" stroke-width="1"/>
  <text x="158" y="422" text-anchor="middle" fill="#166534" font-weight="600" font-size="11">agent-sandbox-controller</text>
  <text x="158" y="436" text-anchor="middle" fill="#15803d" font-size="9">pod lifecycle · SSH proxy · policy</text>

  <!-- openshell-0 pod -->
  <rect x="300" y="404" width="180" height="42" rx="6" fill="#dcfce7" stroke="#16a34a" stroke-width="1"/>
  <text x="390" y="422" text-anchor="middle" fill="#166534" font-weight="600" font-size="11">openshell-0</text>
  <text x="390" y="436" text-anchor="middle" fill="#15803d" font-size="9">gateway · dashboard</text>

  <!-- Per-user persist (outside cluster, on host) -->
  <rect x="48" y="488" width="200" height="48" rx="6" fill="#fef9c3" stroke="#eab308" stroke-width="1"/>
  <text x="148" y="506" text-anchor="middle" fill="#854d0e" font-size="11" font-weight="600">persist/users/U0AN.../</text>
  <text x="148" y="522" text-anchor="middle" fill="#a16207" font-size="10">credentials/ · workspace/ · .env</text>

  <rect x="360" y="488" width="200" height="48" rx="6" fill="#fef9c3" stroke="#eab308" stroke-width="1"/>
  <text x="460" y="506" text-anchor="middle" fill="#854d0e" font-size="11" font-weight="600">persist/users/U09E.../</text>
  <text x="460" y="522" text-anchor="middle" fill="#a16207" font-size="10">credentials/ · workspace/ · .env</text>

  <rect x="672" y="488" width="200" height="48" rx="6" fill="#fef9c3" stroke="#eab308" stroke-width="1"/>
  <text x="772" y="506" text-anchor="middle" fill="#854d0e" font-size="11" font-weight="600">persist/users/U0AP.../</text>
  <text x="772" y="522" text-anchor="middle" fill="#a16207" font-size="10">credentials/ · workspace/ · .env</text>

  <!-- inject arrows from persist into pods -->
  <line x1="148" y1="488" x2="148" y2="394" stroke="#059669" stroke-width="1" marker-end="url(#arrow-green)" stroke-dasharray="3,2"/>
  <line x1="460" y1="488" x2="460" y2="394" stroke="#059669" stroke-width="1" marker-end="url(#arrow-green)" stroke-dasharray="3,2"/>
  <line x1="772" y1="488" x2="772" y2="394" stroke="#059669" stroke-width="1" marker-end="url(#arrow-green)" stroke-dasharray="3,2"/>
  <text x="500" y="480" fill="#059669" font-size="9">SSH inject</text>

  <!-- ===== AUTOMATION LAYER ===== -->
  <text x="40" y="562" fill="#475569" font-size="11" font-weight="600" letter-spacing="1">AUTOMATION (HOST)</text>

  <rect x="40" y="574" width="200" height="48" rx="8" fill="#e0e7ff" stroke="#6366f1" stroke-width="1" filter="url(#shadow)"/>
  <text x="140" y="594" text-anchor="middle" fill="#3730a3" font-weight="600" font-size="11">refresh-credentials.sh</text>
  <text x="140" y="610" text-anchor="middle" fill="#6366f1" font-size="9">cron 15 min · OAuth · gateway</text>

  <rect x="265" y="574" width="200" height="48" rx="8" fill="#e0e7ff" stroke="#6366f1" stroke-width="1" filter="url(#shadow)"/>
  <text x="365" y="594" text-anchor="middle" fill="#3730a3" font-weight="600" font-size="11">nemoclaw-resilience.sh</text>
  <text x="365" y="610" text-anchor="middle" fill="#6366f1" font-size="9">--all · full bring-up sequence</text>

  <rect x="490" y="574" width="200" height="48" rx="8" fill="#e0e7ff" stroke="#6366f1" stroke-width="1" filter="url(#shadow)"/>
  <text x="590" y="594" text-anchor="middle" fill="#3730a3" font-weight="600" font-size="11">watchdog-bridge.sh</text>
  <text x="590" y="610" text-anchor="middle" fill="#6366f1" font-size="9">cron 2 min · restart + lock cleanup</text>

  <rect x="715" y="574" width="200" height="48" rx="8" fill="#e0e7ff" stroke="#6366f1" stroke-width="1" filter="url(#shadow)"/>
  <text x="815" y="594" text-anchor="middle" fill="#3730a3" font-weight="600" font-size="11">start-services.sh</text>
  <text x="815" y="610" text-anchor="middle" fill="#6366f1" font-size="9">auto-detect multi-user · PID</text>

  <!-- ===== SECURITY LAYER ===== -->
  <text x="40" y="652" fill="#475569" font-size="11" font-weight="600" letter-spacing="1">SECURITY</text>

  <rect x="40" y="664" width="190" height="44" rx="8" fill="#fce7f3" stroke="#ec4899" stroke-width="1"/>
  <text x="135" y="683" text-anchor="middle" fill="#9d174d" font-weight="600" font-size="11">Credential Isolation</text>
  <text x="135" y="698" text-anchor="middle" fill="#be185d" font-size="9">mode 700 · per-user dirs</text>

  <rect x="255" y="664" width="150" height="44" rx="8" fill="#fce7f3" stroke="#ec4899" stroke-width="1"/>
  <text x="330" y="683" text-anchor="middle" fill="#9d174d" font-weight="600" font-size="11">RBAC</text>
  <text x="330" y="698" text-anchor="middle" fill="#be185d" font-size="9">admin · user roles</text>

  <rect x="430" y="664" width="190" height="44" rx="8" fill="#fce7f3" stroke="#ec4899" stroke-width="1"/>
  <text x="525" y="683" text-anchor="middle" fill="#9d174d" font-weight="600" font-size="11">K8s Network Policy</text>
  <text x="525" y="698" text-anchor="middle" fill="#be185d" font-size="9">per-pod · merge-policy.py</text>

  <rect x="645" y="664" width="170" height="44" rx="8" fill="#fce7f3" stroke="#ec4899" stroke-width="1"/>
  <text x="730" y="683" text-anchor="middle" fill="#9d174d" font-weight="600" font-size="11">Audit Log</text>
  <text x="730" y="698" text-anchor="middle" fill="#be185d" font-size="9">admin-actions.log · JSON</text>

  <!-- ===== LEGEND ===== -->
  <rect x="40" y="726" width="840" height="40" rx="8" fill="#f1f5f9" stroke="#e2e8f0" stroke-width="1"/>
  <line x1="60" y1="748" x2="90" y2="748" stroke="#64748b" stroke-width="1.5" marker-end="url(#arrow)"/>
  <text x="96" y="752" fill="#475569" font-size="10">Data flow</text>
  <line x1="160" y1="748" x2="190" y2="748" stroke="#059669" stroke-width="1" stroke-dasharray="3,2" marker-end="url(#arrow-green)"/>
  <text x="196" y="752" fill="#475569" font-size="10">Cred inject</text>
  <line x1="260" y1="748" x2="290" y2="748" stroke="#64748b" stroke-width="1.5" stroke-dasharray="4,3"/>
  <text x="296" y="752" fill="#475569" font-size="10">Lookup</text>
  <text x="370" y="752" fill="#475569" font-size="10">
    <tspan fill="#4A154B" font-weight="600">Purple</tspan>=Slack
    <tspan dx="6" fill="#0ea5e9" font-weight="600">Blue</tspan>=Bridge
    <tspan dx="6" fill="#16a34a" font-weight="600">Green</tspan>=K3s/Pods
    <tspan dx="6" fill="#854d0e" font-weight="600">Yellow</tspan>=Persist
    <tspan dx="6" fill="#6366f1" font-weight="600">Indigo</tspan>=Cron
    <tspan dx="6" fill="#9d174d" font-weight="600">Pink</tspan>=Security
  </text>
</svg>
